<svg width="84" height="40" fill="none" xmlns="http://www.w3.org/2000/svg"><g clip-path="url(#clip0_1_22)"><path d="M52.999 11.355v21.27c0 1.137.23 2.059.692 2.768.46.71 1.188 1.064 2.182 1.064.71 0 1.57-.266 2.581-.798s2.102-1.401 3.273-2.608V18.647c0-1.171-.142-2.093-.426-2.768-.284-.673-.78-1.188-1.49-1.543v-.16c.78 0 1.57-.124 2.368-.372a10.366 10.366 0 002.263-1.012 8.317 8.317 0 001.81-1.437h.159v.038c0 .805.007 14.243 0 16.113-.018 4.89 1.668 10.856 9.314 11.233 1.453.072 2.635-.452 3.54-1.357.904-.905 1.356-2.12 1.356-3.646 0-1.1-.301-1.996-.904-2.687-.604-.692-1.376-1.278-2.315-1.757a41.445 41.445 0 00-2.954-1.357 24.19 24.19 0 01-3.14-1.703 8.049 8.049 0 01-2.448-2.449c-.64-.992-.958-2.27-.958-3.832 0-1.56.399-2.971 1.197-4.23.798-1.26 1.907-2.254 3.326-2.981 1.42-.727 3.052-1.091 4.897-1.091.886 0 1.765.062 2.634.186.87.125 1.712.311 2.528.559l-1.65 6.44h-.16c-.319-1.88-.957-3.335-1.915-4.364-.958-1.029-2.04-1.544-3.247-1.544-1.349 0-2.394.48-3.14 1.437a5.153 5.153 0 00-1.117 3.247c0 1.064.292 1.942.878 2.634.585.692 1.348 1.278 2.288 1.757.94.479 1.925.95 2.954 1.41a21.91 21.91 0 013.14 1.623 8.19 8.19 0 012.475 2.395c.656.977.984 2.227.984 3.753 0 1.88-.434 3.468-1.303 4.763-.87 1.296-2.828 3.972-7.059 4.018-3.36.037-6.04-1.734-9.006-1.734-2.266 0-3.797 1.014-4.72 1.688h-.159v-3.566c0-.496.009-.993.027-1.49.017-.496.044-.905.08-1.224h-.054a27.364 27.364 0 01-2.554 2.927 15.41 15.41 0 01-3.06 2.395c-1.083.639-2.138.958-3.167.958-1.49 0-2.635-.524-3.433-1.57a5.3 5.3 0 01-.535-.863c-.495.69-1.166 1.276-2.015 1.761-.87.496-1.73.745-2.581.745-1.03 0-1.898-.346-2.608-1.038-.71-.692-1.064-1.765-1.064-3.22v-.479h-.053c-1.136 1.384-2.378 2.51-3.726 3.38-1.349.869-2.697 1.304-4.045 1.304-1.383 0-2.59-.55-3.619-1.65-1.03-1.1-1.543-2.536-1.543-4.311 0-1.49.479-2.945 1.437-4.364.958-1.42 2.403-2.67 4.337-3.753 1.934-1.082 4.373-1.89 7.318-2.422a282 282 0 01.027-4.07c.017-1.26.026-2.28.026-3.061 0-1.136-.222-2.014-.665-2.635-.444-.62-1.073-.931-1.89-.931-.85 0-1.543.258-2.075.771-.532.515-.984 1.154-1.357 1.917a54.731 54.731 0 00-1.065 2.314c-.337.782-.736 1.43-1.197 1.943-.461.515-1.065.772-1.81.772a1.874 1.874 0 01-1.437-.639c-.39-.425-.585-.975-.585-1.65 0-1.099.496-2.155 1.49-3.166.993-1.012 2.244-1.827 3.753-2.449a11.998 11.998 0 014.603-.93c2.2 0 3.903.523 5.11 1.57 1.205 1.046 1.809 2.474 1.809 4.284 0 1.136-.01 2.457-.027 3.965-.018 1.508-.035 3.096-.053 4.763l-.053 4.87a365.238 365.238 0 00-.026 4.178c0 .888.132 1.562.398 2.023.267.461.7.691 1.304.691.568 0 1.153-.247 1.757-.744l.008.01c-.364-.834-.546-1.802-.546-2.904V18.647c0-1.171-.16-2.093-.479-2.768a3.314 3.314 0 00-1.49-1.543v-.16c.78 0 1.57-.124 2.369-.372a10.368 10.368 0 002.262-1.012 8.3 8.3 0 001.809-1.437h.16zM10.325 0v.16c-.923.39-1.597 1.064-2.023 2.022-.425.958-.638 1.898-.638 2.82l-.194 9.634h13.34V5.002c0-.922-.222-1.862-.666-2.82C19.7 1.224 19.054.55 18.202.159V0h10.325v.16c-.887.39-1.553 1.064-1.996 2.022-.444.958-.665 1.898-.665 2.82v29.912c0 1.136.257 2.13.771 2.98.514.852 1.145 1.473 1.89 1.864v.16H18.2v-.16c.71-.39 1.322-1.012 1.837-1.863.514-.852.772-1.845.772-2.981V15.86H7.47l.194 19.054c0 1.136.257 2.13.771 2.98.515.852 1.145 1.473 1.89 1.864v.16H0v-.16c.71-.39 1.321-1.012 1.836-1.863.514-.852.772-1.845.772-2.981V5.002c0-.922-.205-1.862-.612-2.82C1.587 1.224.922.55 0 .159V0h10.325zm30.544 24.183c-2.235.497-3.938 1.197-5.109 2.102-1.171.905-1.978 1.916-2.422 3.034a9.09 9.09 0 00-.665 3.38c0 1.348.274 2.404.825 3.166.55.764 1.339 1.145 2.368 1.145.674 0 1.428-.187 2.262-.56.834-.372 1.712-1.001 2.635-1.889a511.71 511.71 0 01.107-10.378z" fill="#fff"/></g><defs><clipPath id="clip0_1_22"><path fill="#fff" d="M0 0h84v40H0z"/></clipPath></defs></svg>